<svg width="360" height="505" viewBox="0 0 360 505" fill="none" xmlns="http://www.w3.org/2000/svg">
<g opacity="0.16">
<path d="M546.68 98.0865L321.68 4.3365C314.826 1.49328 307.479 0.0297852 300.059 0.0297852C292.638 0.0297852 285.291 1.49328 278.438 4.3365L53.4375 98.0865C32.4609 106.758 18.75 127.266 18.75 150.001C18.75 382.618 152.93 543.399 278.32 595.665C292.148 601.407 307.734 601.407 321.562 595.665C421.992 553.829 581.25 409.336 581.25 150.001C581.25 127.266 567.539 106.758 546.68 98.0865ZM300.117 523.008L300 76.524L506.133 162.422C502.266 339.844 409.922 468.399 300.117 523.008Z" fill="white"/>
</g>
</svg>
