<svg width="88" height="33" viewBox="0 0 88 33" fill="none" xmlns="http://www.w3.org/2000/svg">
<path d="M8.71875 4.09375H6.57812V28.7344H8.71875V32.3438H1.84375V0.46875H8.71875V4.09375Z" fill="#F2382C"/>
<path d="M27.1094 21C27.1094 20.4896 27 20.0469 26.7812 19.6719C26.5625 19.2969 26.1406 18.9427 25.5156 18.6094C24.901 18.2656 23.9896 17.901 22.7812 17.5156C21.4062 17.0781 20.1406 16.5573 18.9844 15.9531C17.8281 15.3385 16.8958 14.5781 16.1875 13.6719C15.4896 12.7656 15.1406 11.6458 15.1406 10.3125C15.1406 9.03125 15.5052 7.91667 16.2344 6.96875C16.9635 6.01042 17.9635 5.26562 19.2344 4.73438C20.5156 4.20312 21.9792 3.9375 23.625 3.9375C25.3125 3.9375 26.7865 4.23438 28.0469 4.82812C29.3073 5.42188 30.2812 6.25 30.9688 7.3125C31.6667 8.36458 32.0156 9.58333 32.0156 10.9688H27.125C27.125 10.0521 26.8333 9.30208 26.25 8.71875C25.6667 8.125 24.7656 7.82812 23.5469 7.82812C22.3698 7.82812 21.4896 8.07292 20.9062 8.5625C20.3333 9.05208 20.0469 9.64583 20.0469 10.3438C20.0469 11.0729 20.4271 11.6771 21.1875 12.1562C21.9583 12.6354 23.0469 13.0938 24.4531 13.5312C26.9323 14.2917 28.8125 15.25 30.0938 16.4062C31.375 17.5625 32.0156 19.0833 32.0156 20.9688C32.0156 22.9792 31.2656 24.5417 29.7656 25.6562C28.2656 26.7604 26.2552 27.3125 23.7344 27.3125C22.5885 27.3125 21.4635 27.1667 20.3594 26.875C19.2656 26.5729 18.2708 26.1146 17.375 25.5C16.4896 24.875 15.7812 24.0885 15.25 23.1406C14.7188 22.1927 14.4531 21.0677 14.4531 19.7656H19.375C19.375 21.1094 19.7656 22.0573 20.5469 22.6094C21.3385 23.1615 22.401 23.4375 23.7344 23.4375C24.8906 23.4375 25.7396 23.2031 26.2812 22.7344C26.8333 22.2656 27.1094 21.6875 27.1094 21ZM43.6719 4.25C46.3073 4.25 48.375 4.83854 49.875 6.01562C51.3854 7.18229 52.1406 8.88542 52.1406 11.125C52.1406 12.8021 51.776 14.1458 51.0469 15.1562C50.3281 16.1562 49.349 16.9375 48.1094 17.5L52.9688 26.7656V27H47.7031L43.5312 18.7656H40.0156V27H35.1094V4.25H43.6719ZM43.6719 8.21875H40.0156V14.7969H43.6562C44.8438 14.7969 45.7344 14.5052 46.3281 13.9219C46.9219 13.3281 47.2188 12.5312 47.2188 11.5312C47.2188 10.5104 46.9271 9.70312 46.3438 9.10938C45.7708 8.51562 44.8802 8.21875 43.6719 8.21875ZM73.6094 19.375C73.5156 20.9271 73.0938 22.3021 72.3438 23.5C71.5938 24.6875 70.5469 25.6198 69.2031 26.2969C67.8698 26.974 66.2656 27.3125 64.3906 27.3125C62.4219 27.3125 60.7292 26.8698 59.3125 25.9844C57.9062 25.0885 56.8229 23.8229 56.0625 22.1875C55.3021 20.5417 54.9219 18.5885 54.9219 16.3281V14.9375C54.9219 12.6771 55.3125 10.724 56.0938 9.07812C56.8854 7.43229 57.9896 6.16146 59.4062 5.26562C60.8333 4.36979 62.5052 3.92188 64.4219 3.92188C66.3385 3.92188 67.9531 4.27604 69.2656 4.98438C70.5885 5.68229 71.6094 6.64062 72.3281 7.85938C73.0573 9.07812 73.4948 10.4688 73.6406 12.0312H68.7344C68.6406 10.6979 68.276 9.6875 67.6406 9C67.0156 8.30208 65.9427 7.95312 64.4219 7.95312C62.901 7.95312 61.7656 8.51042 61.0156 9.625C60.276 10.7396 59.9062 12.5 59.9062 14.9062V16.3281C59.9062 18.6823 60.2448 20.4323 60.9219 21.5781C61.6094 22.724 62.7656 23.2969 64.3906 23.2969C65.8177 23.2969 66.8698 22.974 67.5469 22.3281C68.224 21.6719 68.6146 20.6875 68.7188 19.375H73.6094Z" fill="white"/>
<path d="M79.2344 0.46875H86.1094V32.3438H79.2344V28.7344H81.3906V4.09375H79.2344V0.46875Z" fill="#F2382C"/>
</svg>
