<svg width="182" height="38" viewBox="0 0 182 38" fill="none" xmlns="http://www.w3.org/2000/svg">
<path d="M33.7875 6.21086L19.3875 0.272785C18.9489 0.0926974 18.4786 0 18.0037 0C17.5289 0 17.0586 0.0926974 16.62 0.272785L2.22 6.21086C0.8775 6.76014 0 8.05909 0 9.49908C0 24.2329 8.5875 34.4167 16.6125 37.7272C17.4975 38.0909 18.495 38.0909 19.38 37.7272C25.8075 35.0774 36 25.9253 36 9.49908C36 8.05909 35.1225 6.76014 33.7875 6.21086Z" fill="#F2382C"/>
<path d="M12.9668 26.2493H8.25586L15.8637 5.9856H19.9559L27.6059 26.2493H22.8949L21.559 22.2133H14.3027L12.9668 26.2493ZM15.4699 18.6782H20.3777L17.9168 11.3159L15.4699 18.6782Z" fill="white"/>
<path d="M52.2292 29L53.5716 24.7244H60.6014L61.9437 29H67.2335L60.3627 8.63636H53.8102L46.9395 29H52.2292ZM54.7449 20.9858L57.002 13.767H57.161L59.4281 20.9858H54.7449ZM69.426 29H82.8194V25.0028H74.3478V8.63636H69.426V29ZM90.2892 8.63636H85.3674V29H90.2892V8.63636ZM112.599 18.8182C112.599 12.0866 108.344 8.35795 102.875 8.35795C97.3862 8.35795 93.1603 12.0866 93.1603 18.8182C93.1603 25.5199 97.3862 29.2784 102.875 29.2784C104.138 29.2784 105.331 29.0795 106.425 28.6918L108.006 30.5909H112.46L109.457 26.892C111.396 25.1122 112.599 22.3878 112.599 18.8182ZM101.165 21.6818L103.611 24.9134C103.372 24.9432 103.123 24.9631 102.875 24.9631C99.9416 24.9631 98.1816 22.8054 98.1816 18.8182C98.1816 14.831 99.9416 12.6733 102.875 12.6733C105.818 12.6733 107.568 14.831 107.568 18.8182C107.568 20.7472 107.16 22.2486 106.395 23.2827L105.142 21.6818H101.165ZM127.82 8.63636V21.3438C127.82 23.4616 126.318 24.983 124.121 24.983C121.914 24.983 120.422 23.4616 120.422 21.3438V8.63636H115.5V21.7713C115.5 26.3253 118.941 29.2585 124.121 29.2585C129.262 29.2585 132.732 26.3253 132.732 21.7713V8.63636H127.82ZM140.221 29L141.564 24.7244H148.594L149.936 29H155.226L148.355 8.63636H141.802L134.932 29H140.221ZM142.737 20.9858L144.994 13.767H145.153L147.42 20.9858H142.737ZM157.418 8.63636V29H162.211V16.4219H162.38L167.272 28.8707H170.334L175.226 16.4915H175.395V29H180.188V8.63636H174.093L168.922 21.2443H168.684L163.513 8.63636H157.418Z" fill="white"/>
</svg>
